<svg xmlns="http://www.w3.org/2000/svg" width="1280" height="420" viewBox="0 0 1280 420">
<style>text{font-family:"Microsoft YaHei","Noto Sans CJK SC",Arial,sans-serif;fill:#1f2937}.small{font-size:13px;fill:#4b5563}.title{font-size:24px;font-weight:700}.seg{font-size:15px;font-weight:700}.metric{font-size:12px;fill:#374151}.event{font-size:13px;font-weight:700}.sub{font-size:12px;fill:#6b7280}.axis{stroke:#6b7280;stroke-width:2}.tick{stroke:#9ca3af;stroke-width:1}.line{stroke:#374151;stroke-width:1.5;stroke-dasharray:4 4}.point{fill:#111827}.box{fill:#ffffff;stroke:#cbd5e1;stroke-width:1}</style>
<rect width="100%" height="100%" fill="#ffffff"/>
<text x="640" y="42" text-anchor="middle" class="title">标毅线测试 Timeline：路线段与关键指标</text>
<text x="640" y="68" text-anchor="middle" class="small">横向按本次 FIT 累计距离展开，用来确认每个事件处于哪一段</text>
<rect x="80.0" y="155" width="300.9" height="64" fill="#e9f4f1" stroke="#d1d5db"/>
<text x="230.4" y="177" text-anchor="middle" class="seg">老和云起 → 北高峰</text>
<text x="230.4" y="197" text-anchor="middle" class="metric">0.00–3.93 km｜04:17–05:32</text>
<text x="230.4" y="213" text-anchor="middle" class="metric">均心率152 / 爬升约345m</text>
<rect x="380.9" y="155" width="368.2" height="64" fill="#f0eff8" stroke="#d1d5db"/>
<text x="565.0" y="177" text-anchor="middle" class="seg">北高峰 → 天竺山</text>
<text x="565.0" y="197" text-anchor="middle" class="metric">3.93–8.74 km｜05:32–07:49</text>
<text x="565.0" y="213" text-anchor="middle" class="metric">均心率154 / 爬升约516m</text>
<rect x="749.1" y="155" width="268.7" height="64" fill="#f7f1e8" stroke="#d1d5db"/>
<text x="883.4" y="177" text-anchor="middle" class="seg">天竺山 → 五云山/真迹寺</text>
<text x="883.4" y="197" text-anchor="middle" class="metric">8.74–12.25 km｜07:49–09:14</text>
<text x="883.4" y="213" text-anchor="middle" class="metric">均心率139 / 下降约223m</text>
<rect x="1017.8" y="155" width="182.2" height="64" fill="#edf2fa" stroke="#d1d5db"/>
<text x="1108.9" y="177" text-anchor="middle" class="seg">五云山/真迹寺 → 林海亭</text>
<text x="1108.9" y="197" text-anchor="middle" class="metric">12.25–14.63 km｜09:14–10:33</text>
<text x="1108.9" y="213" text-anchor="middle" class="metric">均心率142 / 下降约295m</text>
<line x1="80" y1="260" x2="1200" y2="260" class="axis"/>
<line x1="80.0" y1="254" x2="80.0" y2="266" class="tick"/>
<text x="80.0" y="284" text-anchor="middle" class="small">0 km</text>
<line x1="233.1" y1="254" x2="233.1" y2="266" class="tick"/>
<text x="233.1" y="284" text-anchor="middle" class="small">2 km</text>
<line x1="386.2" y1="254" x2="386.2" y2="266" class="tick"/>
<text x="386.2" y="284" text-anchor="middle" class="small">4 km</text>
<line x1="539.3" y1="254" x2="539.3" y2="266" class="tick"/>
<text x="539.3" y="284" text-anchor="middle" class="small">6 km</text>
<line x1="692.4" y1="254" x2="692.4" y2="266" class="tick"/>
<text x="692.4" y="284" text-anchor="middle" class="small">8 km</text>
<line x1="845.6" y1="254" x2="845.6" y2="266" class="tick"/>
<text x="845.6" y="284" text-anchor="middle" class="small">10 km</text>
<line x1="998.7" y1="254" x2="998.7" y2="266" class="tick"/>
<text x="998.7" y="284" text-anchor="middle" class="small">12 km</text>
<line x1="1200.0" y1="254" x2="1200.0" y2="266" class="tick"/>
<text x="1200.0" y="284" text-anchor="middle" class="small">14.63 km</text>
<line x1="80.0" y1="155" x2="80.0" y2="115" class="line"/>
<circle cx="80.0" cy="260" r="4" class="point"/>
<rect x="32.0" y="61.0" width="96" height="44" rx="8" class="box"/>
<text x="80.0" y="79.0" text-anchor="middle" class="event">04:17 出发</text>
<text x="80.0" y="96.0" text-anchor="middle" class="sub">老和云起</text>
<line x1="267.6" y1="260" x2="267.6" y2="285" class="line"/>
<circle cx="267.6" cy="260" r="4" class="point"/>
<rect x="207.6" y="325.0" width="120" height="44" rx="8" class="box"/>
<text x="267.6" y="343.0" text-anchor="middle" class="event">05:10 最高心率</text>
<text x="267.6" y="360.0" text-anchor="middle" class="sub">176 bpm</text>
<line x1="380.9" y1="155" x2="380.9" y2="115" class="line"/>
<circle cx="380.9" cy="260" r="4" class="point"/>
<rect x="326.9" y="61.0" width="108" height="44" rx="8" class="box"/>
<text x="380.9" y="79.0" text-anchor="middle" class="event">05:32 北高峰</text>
<text x="380.9" y="96.0" text-anchor="middle" class="sub">3.93 km</text>
<line x1="723.1" y1="260" x2="723.1" y2="285" class="line"/>
<circle cx="723.1" cy="260" r="4" class="point"/>
<rect x="628.1" y="325.0" width="190" height="44" rx="8" class="box"/>
<text x="723.1" y="343.0" text-anchor="middle" class="event">06:59–08:18 最长低速段</text>
<text x="723.1" y="360.0" text-anchor="middle" class="sub">跨天竺山</text>
<line x1="746.8" y1="155" x2="746.8" y2="115" class="line"/>
<circle cx="746.8" cy="260" r="4" class="point"/>
<rect x="692.8" y="61.0" width="108" height="44" rx="8" class="box"/>
<text x="746.8" y="79.0" text-anchor="middle" class="event">07:47 最高点</text>
<text x="746.8" y="96.0" text-anchor="middle" class="sub">8.71 km</text>
<line x1="1017.8" y1="260" x2="1017.8" y2="285" class="line"/>
<circle cx="1017.8" cy="260" r="4" class="point"/>
<rect x="939.8" y="325.0" width="156" height="44" rx="8" class="box"/>
<text x="1017.8" y="343.0" text-anchor="middle" class="event">09:14 五云山/真迹寺</text>
<text x="1017.8" y="360.0" text-anchor="middle" class="sub">12.25 km</text>
<line x1="1094.4" y1="155" x2="1094.4" y2="115" class="line"/>
<circle cx="1094.4" cy="260" r="4" class="point"/>
<rect x="999.4" y="61.0" width="190" height="44" rx="8" class="box"/>
<text x="1094.4" y="79.0" text-anchor="middle" class="event">09:18–10:04 持续陡降</text>
<text x="1094.4" y="96.0" text-anchor="middle" class="sub">下降约253m</text>
<line x1="1200.0" y1="260" x2="1200.0" y2="285" class="line"/>
<circle cx="1200.0" cy="260" r="4" class="point"/>
<rect x="1128.0" y="325.0" width="132" height="44" rx="8" class="box"/>
<text x="1194.0" y="343.0" text-anchor="middle" class="event">10:33 林海亭结束</text>
<text x="1194.0" y="360.0" text-anchor="middle" class="sub">14.63 km</text>
</svg>